<?xml version="1.0" encoding="iso-8859-1"?>
<!-- Generator: Adobe Illustrator 16.0.0, SVG Export Plug-In . SVG Version: 6.00 Build 0)  -->
<!DOCTYPE svg PUBLIC "-//W3C//DTD SVG 1.1//EN" "http://www.w3.org/Graphics/SVG/1.1/DTD/svg11.dtd">
<svg version="1.1" id="Capa_1" xmlns="http://www.w3.org/2000/svg" xmlns:xlink="http://www.w3.org/1999/xlink" x="0px" y="0px"
	 width="606.191px" height="606.191px" viewBox="0 0 606.191 606.191" style="enable-background:new 0 0 606.191 606.191;"
	 xml:space="preserve">
<g>
	<g>
		<g>
			<path d="M90.571,413.793c10.599,10.6,24.634,16.436,39.521,16.436c14.312,0,27.957-5.381,38.422-15.156
				c5.504-5.139,9.841-11.227,12.89-18.088c3.191-7.188,4.81-14.859,4.81-22.807V232.015c0-7.947-1.618-15.619-4.809-22.805
				c-3.048-6.863-7.384-12.95-12.889-18.091c-10.465-9.773-24.11-15.157-38.423-15.157c-14.886,0-28.922,5.837-39.521,16.436
				l-68.75,68.751c-23.129,23.129-23.129,60.764,0,83.893L90.571,413.793z M52.113,291.442l68.75-68.75
				c2.686-2.686,5.988-3.888,9.228-3.888c6.778,0,13.28,5.264,13.28,13.211v142.163c0,7.947-6.502,13.211-13.28,13.211
				c-3.24,0-6.542-1.201-9.228-3.889l-68.75-68.75C45.677,308.314,45.677,297.878,52.113,291.442z"/>
			<path d="M130.091,430.729c-15.021,0-29.182-5.889-39.874-16.582l-68.75-68.75c-11.281-11.28-17.494-26.303-17.494-42.3
				s6.213-31.02,17.494-42.3l68.75-68.751c10.693-10.693,24.854-16.583,39.874-16.583c14.438,0,28.205,5.431,38.764,15.292
				c5.553,5.186,9.929,11.328,13.004,18.253c3.22,7.251,4.852,14.992,4.852,23.008v142.163c0,8.017-1.633,15.758-4.853,23.01
				c-3.078,6.927-7.453,13.066-13.005,18.25C158.299,425.298,144.532,430.729,130.091,430.729z M130.092,176.462
				c-14.753,0-28.663,5.785-39.167,16.29l-68.75,68.751c-11.092,11.092-17.201,25.863-17.201,41.593
				c0,15.729,6.109,30.501,17.201,41.593l68.75,68.75c10.503,10.504,24.413,16.289,39.167,16.289
				c14.187,0,27.71-5.335,38.081-15.021c5.454-5.092,9.751-11.122,12.774-17.926c3.163-7.123,4.767-14.728,4.767-22.604V232.015
				c0-7.875-1.604-15.479-4.766-22.602c-3.021-6.802-7.318-12.834-12.773-17.929C157.8,181.797,144.276,176.462,130.092,176.462z
				 M130.091,387.889c-3.578,0-6.98-1.433-9.581-4.035l-68.75-68.75c-3.208-3.207-4.974-7.471-4.974-12.007
				c0-4.537,1.767-8.801,4.974-12.008l68.75-68.75c2.602-2.602,6.004-4.035,9.581-4.035c8.626,0,13.78,6.972,13.78,13.711v142.163
				C143.872,380.917,138.717,387.889,130.091,387.889z M130.091,219.303c-3.357,0-6.426,1.294-8.874,3.742l-68.75,68.75
				c-3.019,3.019-4.681,7.032-4.681,11.301c0,4.269,1.663,8.281,4.681,11.3l68.75,68.75c2.447,2.448,5.516,3.742,8.874,3.742
				c6.282,0,12.78-4.755,12.78-12.711V232.015C142.872,224.058,136.374,219.303,130.091,219.303z"/>
		</g>
		<g>
			<path d="M543.579,0.5H279.888c-32.059,0-58.14,26.082-58.14,58.14v64.75c0,32.059,26.082,58.14,58.14,58.14h263.689
				c32.059,0,58.141-26.082,58.141-58.14V58.64C601.72,26.582,575.638,0.5,543.579,0.5z M558.878,123.39
				c0,8.45-6.85,15.3-15.299,15.3H279.888c-8.45,0-15.3-6.85-15.3-15.3V58.64c0-8.45,6.85-15.3,15.3-15.3h263.689
				c8.451,0,15.301,6.85,15.301,15.3V123.39L558.878,123.39z"/>
			<path d="M543.577,182.03H279.888c-32.334,0-58.64-26.306-58.64-58.64V58.64c0-32.334,26.306-58.64,58.64-58.64h263.691
				c15.639,0,30.357,6.106,41.445,17.194c11.089,11.088,17.194,25.808,17.193,41.446v64.75
				C602.218,155.725,575.912,182.03,543.577,182.03z M279.888,1c-31.783,0-57.64,25.857-57.64,57.64v64.75
				c0,31.783,25.857,57.64,57.64,57.64h263.689c31.783,0,57.641-25.857,57.641-57.64V58.64c0.001-15.371-6.001-29.839-16.9-40.738
				C573.419,7.002,558.95,1,543.579,1H279.888z M543.579,139.19H279.888c-8.712,0-15.8-7.088-15.8-15.8V58.64
				c0-8.712,7.088-15.8,15.8-15.8h263.689c8.713,0,15.801,7.088,15.801,15.8v64.75C559.378,132.103,552.291,139.19,543.579,139.19z
				 M279.888,43.84c-8.161,0-14.8,6.639-14.8,14.8v64.75c0,8.161,6.639,14.8,14.8,14.8h263.691c8.16,0,14.799-6.639,14.799-14.8
				V58.64c0-8.161-6.64-14.8-14.801-14.8H279.888z"/>
		</g>
		<g>
			<path d="M543.579,212.582H279.888c-32.059,0-58.14,26.082-58.14,58.14v64.75c0,32.059,26.082,58.141,58.14,58.141h263.689
				c32.059,0,58.141-26.082,58.141-58.141v-64.75C601.72,238.663,575.638,212.582,543.579,212.582z M558.878,335.471
				c0,8.449-6.85,15.301-15.299,15.301H279.888c-8.45,0-15.3-6.852-15.3-15.301v-64.75c0-8.45,6.85-15.3,15.3-15.3h263.689
				c8.451,0,15.301,6.85,15.301,15.3V335.471L558.878,335.471z"/>
			<path d="M543.577,394.111H279.888c-32.334,0-58.64-26.306-58.64-58.641v-64.75c0-32.334,26.306-58.64,58.64-58.64h263.691
				c15.639,0,30.357,6.106,41.445,17.194c11.089,11.088,17.194,25.807,17.193,41.445v64.75
				C602.218,367.806,575.912,394.111,543.577,394.111z M279.888,213.082c-31.783,0-57.64,25.857-57.64,57.64v64.75
				c0,31.783,25.857,57.641,57.64,57.641h263.689c31.783,0,57.641-25.857,57.641-57.641v-64.75
				c0.001-15.371-6.001-29.839-16.9-40.738c-10.898-10.899-25.366-16.901-40.738-16.901H279.888z M543.579,351.271H279.888
				c-8.712,0-15.8-7.088-15.8-15.801v-64.75c0-8.712,7.088-15.8,15.8-15.8h263.689c8.713,0,15.801,7.088,15.801,15.8v64.75
				C559.378,344.184,552.291,351.271,543.579,351.271z M279.888,255.921c-8.161,0-14.8,6.639-14.8,14.8v64.75
				c0,8.161,6.639,14.801,14.8,14.801h263.691c8.16,0,14.799-6.64,14.799-14.801v-64.75c0-8.161-6.64-14.8-14.801-14.8H279.888z"/>
		</g>
		<g>
			<path d="M543.579,424.662H279.888c-32.059,0-58.14,26.082-58.14,58.141v64.75c0,32.059,26.082,58.139,58.14,58.139h263.689
				c32.059,0,58.141-26.08,58.141-58.139v-64.75C601.72,450.744,575.638,424.662,543.579,424.662z M558.878,547.553
				c0,8.449-6.85,15.299-15.299,15.299H279.888c-8.45,0-15.3-6.85-15.3-15.299v-64.75c0-8.451,6.85-15.301,15.3-15.301h263.689
				c8.451,0,15.301,6.85,15.301,15.301V547.553L558.878,547.553z"/>
			<path d="M543.577,606.191H279.888c-32.334,0-58.64-26.306-58.64-58.639v-64.75c0-32.335,26.306-58.641,58.64-58.641h263.691
				c15.639,0,30.357,6.106,41.445,17.194c11.089,11.089,17.194,25.808,17.193,41.446v64.75
				C602.218,579.886,575.912,606.191,543.577,606.191z M279.888,425.162c-31.783,0-57.64,25.857-57.64,57.641v64.75
				c0,31.782,25.857,57.639,57.64,57.639h263.689c31.783,0,57.641-25.856,57.641-57.639v-64.75
				c0.001-15.371-6.001-29.839-16.9-40.738c-10.898-10.899-25.367-16.902-40.738-16.902H279.888z M543.579,563.352H279.888
				c-8.712,0-15.8-7.087-15.8-15.799v-64.75c0-8.713,7.088-15.801,15.8-15.801h263.689c8.713,0,15.801,7.088,15.801,15.801v64.75
				C559.378,556.265,552.291,563.352,543.579,563.352z M279.888,468.002c-8.161,0-14.8,6.64-14.8,14.801v64.75
				c0,8.16,6.639,14.799,14.8,14.799h263.691c8.16,0,14.799-6.639,14.799-14.799v-64.75c0-8.161-6.64-14.801-14.801-14.801H279.888z
				"/>
		</g>
	</g>
</g>
<g>
</g>
<g>
</g>
<g>
</g>
<g>
</g>
<g>
</g>
<g>
</g>
<g>
</g>
<g>
</g>
<g>
</g>
<g>
</g>
<g>
</g>
<g>
</g>
<g>
</g>
<g>
</g>
<g>
</g>
</svg>
